<?xml version="1.0" encoding="UTF-8" standalone="no"?>
<svg width="400px" height="260px" viewBox="0 0 400 260" version="1.1" xmlns="http://www.w3.org/2000/svg" xmlns:xlink="http://www.w3.org/1999/xlink" xmlns:sketch="http://www.bohemiancoding.com/sketch/ns">
    <title>bubbelmönster smal</title>
    <description>Created with Sketch (http://www.bohemiancoding.com/sketch)</description>
    <defs></defs>
    <g id="Page-1" stroke="none" stroke-width="1" fill="none" fill-rule="evenodd" sketch:type="MSPage">
        <g id="bubbelmönster-smal" sketch:type="MSArtboardGroup">
            <g id="Group" sketch:type="MSLayerGroup" transform="translate(5.000000, 2.000000)">
                <path d="M265.5,247 C288.972103,247 308,228.195961 308,205 C308,181.804039 288.972103,163 265.5,163 C242.027897,163 223,181.804039 223,205 C223,228.195961 242.027897,247 265.5,247 Z" id="Oval-29-copy" fill-opacity="0.51467716" fill="#959DAB" sketch:type="MSShapeGroup"></path>
                <path d="M233.5,196 C256.972103,196 276,177.195961 276,154 C276,130.804039 256.972103,112 233.5,112 C210.027897,112 191,130.804039 191,154 C191,177.195961 210.027897,196 233.5,196 Z" id="Oval-29-copy-3" fill-opacity="0.51467716" fill="#959DAB" sketch:type="MSShapeGroup"></path>
                <path d="M282.5,196 C305.972103,196 325,177.195961 325,154 C325,130.804039 305.972103,112 282.5,112 C259.027897,112 240,130.804039 240,154 C240,177.195961 259.027897,196 282.5,196 Z" id="Oval-29-copy-3" fill-opacity="0.654383042" fill="#f0f3f8" sketch:type="MSShapeGroup"></path>
                <path d="M315.5,232 C338.972103,232 358,213.195961 358,190 C358,166.804039 338.972103,148 315.5,148 C292.027897,148 273,166.804039 273,190 C273,213.195961 292.027897,232 315.5,232 Z" id="Oval-29-copy-3" fill-opacity="0.51467716" fill="#959DAB" sketch:type="MSShapeGroup"></path>
                <path d="M348.5,173 C371.972103,173 391,154.195961 391,131 C391,107.804039 371.972103,89 348.5,89 C325.027897,89 306,107.804039 306,131 C306,154.195961 325.027897,173 348.5,173 Z" id="Oval-29-copy-5" fill-opacity="0.654383042" fill="#f0f3f8" sketch:type="MSShapeGroup"></path>
                <path d="M308.5,142 C331.972103,142 351,123.195961 351,100 C351,76.8040394 331.972103,58 308.5,58 C285.027897,58 266,76.8040394 266,100 C266,123.195961 285.027897,142 308.5,142 Z" id="Oval-29-copy-4" fill-opacity="0.51467716" fill="#959DAB" sketch:type="MSShapeGroup"></path>
                <path d="M251.5,142 C274.972103,142 294,123.195961 294,100 C294,76.8040394 274.972103,58 251.5,58 C228.027897,58 209,76.8040394 209,100 C209,123.195961 228.027897,142 251.5,142 Z" id="Oval-29-copy-4" fill-opacity="0.654383042" fill="#f0f3f8" sketch:type="MSShapeGroup"></path>
                <path d="M198.5,142 C221.972103,142 241,123.195961 241,100 C241,76.8040394 221.972103,58 198.5,58 C175.027897,58 156,76.8040394 156,100 C156,123.195961 175.027897,142 198.5,142 Z" id="Oval-29-copy-5" fill-opacity="0.51467716" fill="#959DAB" sketch:type="MSShapeGroup"></path>
                <path d="M119.5,173 C142.972103,173 162,154.195961 162,131 C162,107.804039 142.972103,89 119.5,89 C96.027897,89 77,107.804039 77,131 C77,154.195961 96.027897,173 119.5,173 Z" id="Oval-29-copy-6" fill-opacity="0.51467716" fill="#959DAB" sketch:type="MSShapeGroup"></path>
                <path d="M251.5,92 C274.972103,92 294,73.1959606 294,50 C294,26.8040394 274.972103,8 251.5,8 C228.027897,8 209,26.8040394 209,50 C209,73.1959606 228.027897,92 251.5,92 Z" id="Oval-29-copy-6" fill-opacity="0.51467716" fill="#959DAB" sketch:type="MSShapeGroup"></path>
                <path d="M93.5,84 C116.972103,84 136,65.1959606 136,42 C136,18.8040394 116.972103,0 93.5,0 C70.027897,0 51,18.8040394 51,42 C51,65.1959606 70.027897,84 93.5,84 Z" id="Oval-29-copy-7" fill-opacity="0.389705882" fill="#959DAB" sketch:type="MSShapeGroup"></path>
                <path d="M323.5,87 C346.972103,87 366,68.1959606 366,45 C366,21.8040394 346.972103,3 323.5,3 C300.027897,3 281,21.8040394 281,45 C281,68.1959606 300.027897,87 323.5,87 Z" id="Oval-29-copy-5" fill-opacity="0.654383042" fill="#f0f3f8" sketch:type="MSShapeGroup"></path>
                <path d="M157.5,247 C180.972103,247 200,228.195961 200,205 C200,181.804039 180.972103,163 157.5,163 C134.027897,163 115,181.804039 115,205 C115,228.195961 134.027897,247 157.5,247 Z" id="Oval-29-copy-6" fill-opacity="0.51467716" fill="#959DAB" sketch:type="MSShapeGroup"></path>
                <path d="M168.5,186 C191.972103,186 211,167.195961 211,144 C211,120.804039 191.972103,102 168.5,102 C145.027897,102 126,120.804039 126,144 C126,167.195961 145.027897,186 168.5,186 Z" id="Oval-29-copy-5" fill-opacity="0.654383042" fill="#f0f3f8" sketch:type="MSShapeGroup"></path>
                <path d="M132.5,107 C155.972103,107 175,88.1959606 175,65 C175,41.8040394 155.972103,23 132.5,23 C109.027897,23 90,41.8040394 90,65 C90,88.1959606 109.027897,107 132.5,107 Z" id="Oval-29-copy-6" fill-opacity="0.654383042" fill="#f0f3f8" sketch:type="MSShapeGroup"></path>
                <path d="M93.5,230 C116.972103,230 136,211.195961 136,188 C136,164.804039 116.972103,146 93.5,146 C70.027897,146 51,164.804039 51,188 C51,211.195961 70.027897,230 93.5,230 Z" id="Oval-29-copy-7" fill-opacity="0.654383042" fill="#f0f3f8" sketch:type="MSShapeGroup"></path>
                <path d="M42.5,206 C65.972103,206 85,187.195961 85,164 C85,140.804039 65.972103,122 42.5,122 C19.027897,122 0,140.804039 0,164 C0,187.195961 19.027897,206 42.5,206 Z" id="Oval-29-copy-9" fill-opacity="0.308823529" fill="#959DAB" sketch:type="MSShapeGroup"></path>
                <path d="M53.5,133 C76.972103,133 96,114.195961 96,91 C96,67.8040394 76.972103,49 53.5,49 C30.027897,49 11,67.8040394 11,91 C11,114.195961 30.027897,133 53.5,133 Z" id="Oval-29-copy-10" fill-opacity="0.367647059" fill="#959DAB" sketch:type="MSShapeGroup"></path>
                <path d="M78.5,153 C101.972103,153 121,134.195961 121,111 C121,87.8040394 101.972103,69 78.5,69 C55.027897,69 36,87.8040394 36,111 C36,134.195961 55.027897,153 78.5,153 Z" id="Oval-29-copy-6" fill-opacity="0.654383042" fill="#f0f3f8" sketch:type="MSShapeGroup"></path>
                <path d="M42.5,257 C65.972103,257 85,238.195961 85,215 C85,191.804039 65.972103,173 42.5,173 C19.027897,173 0,191.804039 0,215 C0,238.195961 19.027897,257 42.5,257 Z" id="Oval-29-copy-7" fill-opacity="0.654383042" fill="#f0f3f8" sketch:type="MSShapeGroup"></path>
                <path d="M208.5,247 C231.972103,247 251,228.195961 251,205 C251,181.804039 231.972103,163 208.5,163 C185.027897,163 166,181.804039 166,205 C166,228.195961 185.027897,247 208.5,247 Z" id="Oval-29-copy-2" fill-opacity="0.654383042" fill="#f0f3f8" sketch:type="MSShapeGroup"></path>
            </g>
        </g>
    </g>
</svg>