<?xml version="1.0" encoding="UTF-8" standalone="no"?>
<svg width="400px" height="400px" viewBox="0 0 400 400" version="1.1" xmlns="http://www.w3.org/2000/svg" xmlns:xlink="http://www.w3.org/1999/xlink" xmlns:sketch="http://www.bohemiancoding.com/sketch/ns">
    <title>bubbelmönster</title>
    <description>Created with Sketch (http://www.bohemiancoding.com/sketch)</description>
    <defs></defs>
    <g id="Page-1" stroke="none" stroke-width="1" fill="none" fill-rule="evenodd" sketch:type="MSPage">
        <g id="bubbelmönster" sketch:type="MSArtboardGroup">
            <g id="Group-copy-3" sketch:type="MSLayerGroup">
                <path d="M264.5,352 C287.972103,352 307,333.195961 307,310 C307,286.804039 287.972103,268 264.5,268 C241.027897,268 222,286.804039 222,310 C222,333.195961 241.027897,352 264.5,352 Z" id="Oval-29" fill-opacity="0.8" fill="#959DAB" sketch:type="MSShapeGroup"></path>
                <path d="M349.5,321 C372.972103,321 392,302.195961 392,279 C392,255.804039 372.972103,237 349.5,237 C326.027897,237 307,255.804039 307,279 C307,302.195961 326.027897,321 349.5,321 Z" id="Oval-29-copy" fill-opacity="0.8" fill="#959DAB" sketch:type="MSShapeGroup"></path>
                <path d="M275.5,247 C298.972103,247 318,228.195961 318,205 C318,181.804039 298.972103,163 275.5,163 C252.027897,163 233,181.804039 233,205 C233,228.195961 252.027897,247 275.5,247 Z" id="Oval-29-copy" fill-opacity="0.8" fill="#959DAB" sketch:type="MSShapeGroup"></path>
                <path d="M160.5,372 C183.972103,372 203,353.195961 203,330 C203,306.804039 183.972103,288 160.5,288 C137.027897,288 118,306.804039 118,330 C118,353.195961 137.027897,372 160.5,372 Z" id="Oval-29-copy-3" fill-opacity="0.8" fill="#959DAB" sketch:type="MSShapeGroup"></path>
                <path d="M100.5,360 C123.972103,360 143,341.195961 143,318 C143,294.804039 123.972103,276 100.5,276 C77.027897,276 58,294.804039 58,318 C58,341.195961 77.027897,360 100.5,360 Z" id="Oval-29-copy-5" fill-opacity="0.8" fill="#959DAB" sketch:type="MSShapeGroup"></path>
                <path d="M109.5,283 C132.972103,283 152,264.195961 152,241 C152,217.804039 132.972103,199 109.5,199 C86.027897,199 67,217.804039 67,241 C67,264.195961 86.027897,283 109.5,283 Z" id="Oval-29-copy-8" fill-opacity="0.8" fill="#959DAB" sketch:type="MSShapeGroup"></path>
                <path d="M47.5,321 C70.972103,321 90,302.195961 90,279 C90,255.804039 70.972103,237 47.5,237 C24.027897,237 5,255.804039 5,279 C5,302.195961 24.027897,321 47.5,321 Z" id="Oval-29-copy-9" fill-opacity="0.8" fill="##959DAB" sketch:type="MSShapeGroup"></path>
                <path d="M134.5,339 C157.972103,339 177,320.195961 177,297 C177,273.804039 157.972103,255 134.5,255 C111.027897,255 92,273.804039 92,297 C92,320.195961 111.027897,339 134.5,339 Z" id="Oval-29-copy-5" fill-opacity="0.654383042" fill="#f0f3f8" sketch:type="MSShapeGroup"></path>
                <path d="M178.5,317 C201.972103,317 221,298.195961 221,275 C221,251.804039 201.972103,233 178.5,233 C155.027897,233 136,251.804039 136,275 C136,298.195961 155.027897,317 178.5,317 Z" id="Oval-29-copy-4" fill-opacity="0.8" fill="#959DAB" sketch:type="MSShapeGroup"></path>
                <path d="M221.5,360 C244.972103,360 264,341.195961 264,318 C264,294.804039 244.972103,276 221.5,276 C198.027897,276 179,294.804039 179,318 C179,341.195961 198.027897,360 221.5,360 Z" id="Oval-29-copy-3" fill-opacity="0.654383042" fill="#f0f3f8" sketch:type="MSShapeGroup"></path>
                <path d="M243.5,309 C266.972103,309 286,290.195961 286,267 C286,243.804039 266.972103,225 243.5,225 C220.027897,225 201,243.804039 201,267 C201,290.195961 220.027897,309 243.5,309 Z" id="Oval-29-copy-2" fill-opacity="0.8" fill="#959DAB" sketch:type="MSShapeGroup"></path>
                <path d="M243.5,196 C266.972103,196 286,177.195961 286,154 C286,130.804039 266.972103,112 243.5,112 C220.027897,112 201,130.804039 201,154 C201,177.195961 220.027897,196 243.5,196 Z" id="Oval-29-copy-3" fill-opacity="0.8" fill="#959DAB" sketch:type="MSShapeGroup"></path>
                <path d="M292.5,196 C315.972103,196 335,177.195961 335,154 C335,130.804039 315.972103,112 292.5,112 C269.027897,112 250,130.804039 250,154 C250,177.195961 269.027897,196 292.5,196 Z" id="Oval-29-copy-3" fill-opacity="0.654383042" fill="#f0f3f8" sketch:type="MSShapeGroup"></path>
                <path d="M325.5,232 C348.972103,232 368,213.195961 368,190 C368,166.804039 348.972103,148 325.5,148 C302.027897,148 283,166.804039 283,190 C283,213.195961 302.027897,232 325.5,232 Z" id="Oval-29-copy-3" fill-opacity="0.8" fill="#959DAB" sketch:type="MSShapeGroup"></path>
                <path d="M358.5,173 C381.972103,173 401,154.195961 401,131 C401,107.804039 381.972103,89 358.5,89 C335.027897,89 316,107.804039 316,131 C316,154.195961 335.027897,173 358.5,173 Z" id="Oval-29-copy-5" fill-opacity="0.654383042" fill="#f0f3f8" sketch:type="MSShapeGroup"></path>
                <path d="M318.5,142 C341.972103,142 361,123.195961 361,100 C361,76.8040394 341.972103,58 318.5,58 C295.027897,58 276,76.8040394 276,100 C276,123.195961 295.027897,142 318.5,142 Z" id="Oval-29-copy-4" fill-opacity="0.8" fill="#959DAB" sketch:type="MSShapeGroup"></path>
                <path d="M261.5,142 C284.972103,142 304,123.195961 304,100 C304,76.8040394 284.972103,58 261.5,58 C238.027897,58 219,76.8040394 219,100 C219,123.195961 238.027897,142 261.5,142 Z" id="Oval-29-copy-4" fill-opacity="0.654383042" fill="#f0f3f8" sketch:type="MSShapeGroup"></path>
                <path d="M208.5,142 C231.972103,142 251,123.195961 251,100 C251,76.8040394 231.972103,58 208.5,58 C185.027897,58 166,76.8040394 166,100 C166,123.195961 185.027897,142 208.5,142 Z" id="Oval-29-copy-5" fill-opacity="0.8" fill="#959DAB" sketch:type="MSShapeGroup"></path>
                <path d="M129.5,173 C152.972103,173 172,154.195961 172,131 C172,107.804039 152.972103,89 129.5,89 C106.027897,89 87,107.804039 87,131 C87,154.195961 106.027897,173 129.5,173 Z" id="Oval-29-copy-6" fill-opacity="0.8" fill="#959DAB" sketch:type="MSShapeGroup"></path>
                <path d="M261.5,92 C284.972103,92 304,73.1959606 304,50 C304,26.8040394 284.972103,8 261.5,8 C238.027897,8 219,26.8040394 219,50 C219,73.1959606 238.027897,92 261.5,92 Z" id="Oval-29-copy-6" fill-opacity="0.8" fill="#959DAB" sketch:type="MSShapeGroup"></path>
                <path d="M103.5,84 C126.972103,84 146,65.1959606 146,42 C146,18.8040394 126.972103,0 103.5,0 C80.027897,0 61,18.8040394 61,42 C61,65.1959606 80.027897,84 103.5,84 Z" id="Oval-29-copy-7" fill-opacity="0.389705882" fill="#959DAB" sketch:type="MSShapeGroup"></path>
                <path d="M333.5,87 C356.972103,87 376,68.1959606 376,45 C376,21.8040394 356.972103,3 333.5,3 C310.027897,3 291,21.8040394 291,45 C291,68.1959606 310.027897,87 333.5,87 Z" id="Oval-29-copy-5" fill-opacity="0.654383042" fill="#f0f3f8" sketch:type="MSShapeGroup"></path>
                <path d="M167.5,247 C190.972103,247 210,228.195961 210,205 C210,181.804039 190.972103,163 167.5,163 C144.027897,163 125,181.804039 125,205 C125,228.195961 144.027897,247 167.5,247 Z" id="Oval-29-copy-6" fill-opacity="0.8" fill="#959DAB" sketch:type="MSShapeGroup"></path>
                <path d="M178.5,186 C201.972103,186 221,167.195961 221,144 C221,120.804039 201.972103,102 178.5,102 C155.027897,102 136,120.804039 136,144 C136,167.195961 155.027897,186 178.5,186 Z" id="Oval-29-copy-5" fill-opacity="0.654383042" fill="#f0f3f8" sketch:type="MSShapeGroup"></path>
                <path d="M142.5,107 C165.972103,107 185,88.1959606 185,65 C185,41.8040394 165.972103,23 142.5,23 C119.027897,23 100,41.8040394 100,65 C100,88.1959606 119.027897,107 142.5,107 Z" id="Oval-29-copy-6" fill-opacity="0.654383042" fill="#f0f3f8" sketch:type="MSShapeGroup"></path>
                <path d="M103.5,230 C126.972103,230 146,211.195961 146,188 C146,164.804039 126.972103,146 103.5,146 C80.027897,146 61,164.804039 61,188 C61,211.195961 80.027897,230 103.5,230 Z" id="Oval-29-copy-7" fill-opacity="0.654383042" fill="#f0f3f8" sketch:type="MSShapeGroup"></path>
                <path d="M52.5,206 C75.972103,206 95,187.195961 95,164 C95,140.804039 75.972103,122 52.5,122 C29.027897,122 10,140.804039 10,164 C10,187.195961 29.027897,206 52.5,206 Z" id="Oval-29-copy-9" fill-opacity="0.308823529" fill="#959DAB" sketch:type="MSShapeGroup"></path>
                <path d="M63.5,133 C86.972103,133 106,114.195961 106,91 C106,67.8040394 86.972103,49 63.5,49 C40.027897,49 21,67.8040394 21,91 C21,114.195961 40.027897,133 63.5,133 Z" id="Oval-29-copy-10" fill-opacity="0.367647059" fill="#959DAB" sketch:type="MSShapeGroup"></path>
                <path d="M88.5,153 C111.972103,153 131,134.195961 131,111 C131,87.8040394 111.972103,69 88.5,69 C65.027897,69 46,87.8040394 46,111 C46,134.195961 65.027897,153 88.5,153 Z" id="Oval-29-copy-6" fill-opacity="0.654383042" fill="#f0f3f8" sketch:type="MSShapeGroup"></path>
                <path d="M52.5,257 C75.972103,257 95,238.195961 95,215 C95,191.804039 75.972103,173 52.5,173 C29.027897,173 10,191.804039 10,215 C10,238.195961 29.027897,257 52.5,257 Z" id="Oval-29-copy-7" fill-opacity="0.654383042" fill="#f0f3f8" sketch:type="MSShapeGroup"></path>
                <path d="M42.5,388 C65.972103,388 85,369.195961 85,346 C85,322.804039 65.972103,304 42.5,304 C19.027897,304 0,322.804039 0,346 C0,369.195961 19.027897,388 42.5,388 Z" id="Oval-29-copy-8" fill-opacity="0.654383042" fill="#f0f3f8" sketch:type="MSShapeGroup"></path>
                <path d="M297.5,288 C320.972103,288 340,269.195961 340,246 C340,222.804039 320.972103,204 297.5,204 C274.027897,204 255,222.804039 255,246 C255,269.195961 274.027897,288 297.5,288 Z" id="Oval-29-copy" fill-opacity="0.654383042" fill="#f0f3f8" sketch:type="MSShapeGroup"></path>
                <path d="M331.5,383 C354.972103,383 374,364.195961 374,341 C374,317.804039 354.972103,299 331.5,299 C308.027897,299 289,317.804039 289,341 C289,364.195961 308.027897,383 331.5,383 Z" id="Oval-29-copy-2" fill-opacity="0.654383042" fill="#f0f3f8" sketch:type="MSShapeGroup"></path>
                <path d="M218.5,247 C241.972103,247 261,228.195961 261,205 C261,181.804039 241.972103,163 218.5,163 C195.027897,163 176,181.804039 176,205 C176,228.195961 195.027897,247 218.5,247 Z" id="Oval-29-copy-2" fill-opacity="0.654383042" fill="#f0f3f8" sketch:type="MSShapeGroup"></path>
            </g>
        </g>
    </g>
</svg>